<svg width="312" height="80" viewBox="0 0 312 80" fill="none" xmlns="http://www.w3.org/2000/svg">
<path d="M110.073 48.8475L94.4928 34.823V50.7288H91.0114V32.1208C91.0114 30.7069 91.5973 30 92.7693 30H93.5621C93.8838 30.0456 94.217 30.1596 94.5617 30.3421C94.9064 30.5245 95.3201 30.7981 95.8026 31.163L111.934 45.7006V30H115.416V48.6423C115.416 50.0333 114.841 50.7288 113.692 50.7288H113.106C112.785 50.6604 112.36 50.478 111.831 50.1815C111.303 49.8851 110.717 49.4404 110.073 48.8475Z" fill="white"/>
<path d="M144.035 50.7288H139.933L131.178 34.1389L122.388 50.7288H118.355L127.352 33.489C128.064 32.1208 128.742 31.2086 129.385 30.7525C130.029 30.2965 130.557 30.0684 130.971 30.0684H131.488C131.695 30.0684 131.925 30.114 132.177 30.2052C132.43 30.2965 132.706 30.4789 133.005 30.7525C133.303 31.0034 133.625 31.3568 133.97 31.8129C134.314 32.2462 134.671 32.8049 135.038 33.489L144.035 50.7288Z" fill="white"/>
<path d="M166.019 48.8475L150.439 34.823V50.7288H146.957V32.1208C146.957 30.7069 147.543 30 148.715 30H149.508C149.83 30.0456 150.163 30.1596 150.508 30.3421C150.852 30.5245 151.266 30.7981 151.749 31.163L167.88 45.7006V30H171.362V48.6423C171.362 50.0333 170.787 50.7288 169.638 50.7288H169.052C168.731 50.6604 168.305 50.478 167.777 50.1815C167.248 49.8851 166.662 49.4404 166.019 48.8475Z" fill="white"/>
<path d="M188.227 50.7288H187.02C184.975 50.7288 183.217 50.5464 181.746 50.1815C180.276 49.7939 179.058 49.1896 178.093 48.3686C177.15 47.5477 176.449 46.4873 175.99 45.1875C175.53 43.8876 175.3 42.3142 175.3 40.467C175.3 36.8868 176.243 34.2529 178.127 32.5655C180.034 30.8552 183.01 30 187.055 30H188.192C192.214 30 195.178 30.8552 197.085 32.5655C198.993 34.2529 199.946 36.8868 199.946 40.467C199.946 42.3142 199.717 43.8876 199.257 45.1875C198.797 46.4873 198.085 47.5477 197.12 48.3686C196.178 49.1896 194.96 49.7939 193.466 50.1815C191.995 50.5464 190.249 50.7288 188.227 50.7288ZM188.192 33.4548H187.193C184.274 33.4548 182.148 34.0477 180.816 35.2335C179.483 36.3965 178.816 38.1296 178.816 40.4328C178.816 42.7588 179.471 44.4805 180.781 45.5979C182.114 46.7153 184.24 47.274 187.158 47.274H188.089C191.007 47.274 193.121 46.7267 194.431 45.6321C195.764 44.5147 196.43 42.793 196.43 40.467C196.43 38.1866 195.764 36.4535 194.431 35.2677C193.121 34.0819 191.042 33.4776 188.192 33.4548Z" fill="white"/>
<path d="M202.668 30H227.038V33.4548H216.593V50.7288H213.112V33.4548H202.668V30Z" fill="white"/>
<path d="M255.382 47.274V50.7288H236.906C235.872 50.7288 234.976 50.592 234.217 50.3184C233.482 50.0447 232.873 49.6798 232.39 49.2238C231.908 48.7449 231.552 48.1976 231.322 47.5819C231.092 46.9434 230.977 46.2592 230.977 45.5295V43.785C230.977 42.508 231.46 41.3678 232.425 40.3644C231.46 39.3838 230.977 38.2436 230.977 36.9438V35.1993C230.977 34.4924 231.092 33.8197 231.322 33.1812C231.575 32.5427 231.942 31.9954 232.425 31.5393C232.907 31.0604 233.516 30.6841 234.252 30.4105C235.01 30.1368 235.895 30 236.906 30H255.382V33.4548H236.906C236.148 33.4548 235.55 33.6714 235.113 34.1047C234.677 34.5152 234.459 35.1537 234.459 36.0203C234.459 36.8868 234.677 37.5481 235.113 38.0042C235.55 38.4375 236.148 38.6541 236.906 38.6541H255.382V42.1089H236.561C235.159 42.2457 234.459 43.1123 234.459 44.7086C234.459 45.5751 234.677 46.225 235.113 46.6583C235.55 47.0688 236.148 47.274 236.906 47.274H255.382Z" fill="white"/>
<path d="M280.209 35.2335V33.4548H271.212C268.294 33.4548 266.168 34.0477 264.835 35.2335C263.503 36.3965 262.836 38.1296 262.836 40.4328C262.836 42.7588 263.491 44.4805 264.801 45.5979C266.134 46.7153 268.259 47.274 271.178 47.274H283.69V50.7288H271.04C268.995 50.7288 267.237 50.5464 265.766 50.1815C264.295 49.7939 263.077 49.1896 262.112 48.3686C261.17 47.5477 260.469 46.4873 260.01 45.1875C259.55 43.8876 259.32 42.3142 259.32 40.467C259.32 36.8868 260.262 34.2529 262.147 32.5655C264.054 30.8552 267.03 30 271.074 30H283.69V35.2335H280.209Z" fill="white"/>
<path d="M287.63 30H291.111V38.6541H312V42.1089H291.111V50.7288H287.63V30Z" fill="white"/>
<path d="M71.3388 50.7475C71.8735 50.7566 72.3365 51.2248 72.3503 51.7704C72.3661 52.3937 71.9073 52.8356 71.2585 52.822C70.6736 52.8098 70.2343 52.392 70.2243 51.8391C70.2144 51.2727 70.7608 50.7376 71.3388 50.7475Z" fill="url(#paint0_linear_44_92)"/>
<path d="M19.4289 32.3721C18.9618 29.8242 19.2364 29.1932 21.414 27.8794C20.9095 25.4488 20.3941 22.9662 19.8891 20.5344C17.306 19.6684 16.3536 18.4087 16.6676 16.3729C16.9027 14.8489 18.2918 13.6618 19.8891 13.62C21.8057 13.5701 23.0878 14.8881 23.5515 17.4787C28.1909 18.42 32.8726 19.37 37.4325 20.2951C38.2861 19.6928 39.0435 19.1584 39.9399 18.5258V14.2341C38.8039 13.9444 37.6811 13.4887 37.2029 12.3325C36.9254 11.6614 36.7756 10.8463 36.8704 10.1353C37.0872 8.51163 38.5657 7.39977 40.2374 7.41127C41.8251 7.42229 43.2697 8.5827 43.5486 10.071C43.9029 11.9621 43.0353 13.2494 40.6023 14.2808V18.4055C41.5931 19.206 42.445 19.8947 43.5124 20.7572C47.9391 20.1218 52.6659 19.4432 57.3281 18.774C58.3687 16.1062 59.5941 15.1771 61.5385 15.4959C63.1047 15.7527 64.3676 17.2488 64.3522 18.8289C64.3344 20.6322 63.131 21.8294 60.6996 22.33C60.4529 23.3776 60.1785 24.4951 59.9287 25.618C59.6861 26.7082 59.469 27.8041 59.2266 28.9643C60.8086 29.7543 61.7115 30.906 61.1437 32.8637C63.4625 34.1389 65.7792 35.413 68.1298 36.7055C68.4227 36.4003 68.6557 36.1332 68.9137 35.8925C70.1676 34.7236 71.9124 34.5913 73.2599 35.5538C74.578 36.4953 75.042 38.1556 74.3957 39.6174C73.7433 41.0929 72.0776 42.0257 70.4873 41.4872C69.4583 41.1386 68.8853 41.5132 68.2021 42.0429C65.6783 43.9994 63.1455 45.9447 60.6392 47.8761C61.2899 50.2935 61.0951 50.9456 59.2249 52.3481C59.5903 53.7691 59.9747 55.2643 60.3501 56.7233C63.0049 57.1014 64.3126 58.2754 64.3225 60.2148C64.3308 61.8019 63.0741 63.2992 61.5193 63.5548C59.5093 63.8853 58.1801 62.8812 57.3033 60.2204C52.7369 60.0935 48.0979 59.9648 43.3301 59.8322C42.8972 61.1407 42.1976 62.2649 40.6634 62.5626V66.0802C43.132 67.2943 43.9878 68.6377 43.4963 70.4962C43.1138 71.9423 41.5594 73.0459 40.0132 72.9692C38.4385 72.8909 37.0739 71.6854 36.8246 70.1523C36.5253 68.3119 37.5206 67.0088 39.9722 66.0746V62.907C39.0316 62.1589 38.1783 61.4801 37.0924 60.6166C32.8072 61.1801 28.201 61.786 23.6497 62.3843C22.502 65.011 21.2114 65.9739 19.3985 65.6214C17.8276 65.316 16.6783 63.9752 16.6394 62.4024C16.5906 60.4287 17.5856 59.4501 20.4642 58.7265C20.8623 56.7749 21.2706 54.7733 21.669 52.8212C19.2694 51.4464 18.9037 50.393 20.0132 48.0253C17.6875 46.6355 15.346 45.2363 12.9644 43.8134C12.5937 44.1997 12.3089 44.5391 11.9809 44.8307C10.7792 45.8987 9.15187 46.0256 7.84825 45.1734C6.51218 44.2999 5.97139 42.6243 6.55033 41.1524C7.11599 39.7143 8.59544 38.6449 10.0998 39.1335C11.6759 39.6453 12.4167 38.8591 13.3352 37.9956C15.336 36.1153 17.3693 34.2693 19.4293 32.3726L19.4289 32.3721ZM24.7547 31.895C25.5334 32.2642 26.2597 32.62 26.9953 32.9552C28.7307 33.7462 30.4838 33.7725 32.2529 33.0582C34.275 32.2417 36.1362 31.1514 37.8455 29.8113C39.5992 28.4365 40.2402 26.6407 39.876 24.4334C38.033 23.9854 37.3382 22.6983 37.328 20.9085C32.6316 19.9691 27.9961 19.0421 23.6641 18.1756C22.5378 19.1033 21.6256 19.8544 20.5881 20.7089C21.0718 23.0161 21.5917 25.4967 22.0913 27.8789C24.4104 28.6866 24.909 29.4487 24.7547 31.895ZM57.5429 19.3834C52.7604 20.0749 48.0818 20.7514 43.3529 21.4349C43.0451 22.9734 42.2893 24.1127 40.6679 24.4568C40.3468 26.6871 40.9552 28.5421 42.7638 29.835C44.1852 30.8512 45.7201 31.7202 47.2462 32.5823C50.089 34.1881 52.8675 33.7277 55.5767 32.248C55.894 30.0614 56.0826 29.8392 58.0829 29.0107C58.3332 28.9071 58.6292 28.6359 58.6856 28.3927C59.159 26.3519 59.5813 24.2997 60.0271 22.2137C58.8294 21.6446 57.9223 20.8787 57.5429 19.3834ZM13.4182 43.3144C15.1865 44.3768 17.1977 45.5686 19.1902 46.7905C19.9701 47.2688 20.6656 47.683 21.6771 47.2425C22.3816 46.9355 23.1928 47.1743 23.8459 47.6699C24.1634 47.9108 24.4736 48.1611 24.8187 48.4318C25.2938 48.2521 25.7602 48.0931 26.2123 47.9012C28.3449 46.9969 29.671 45.4443 29.7741 43.1141C29.8544 41.2922 29.8186 39.4528 29.6573 37.6367C29.5302 36.2087 28.7759 34.9929 27.5484 34.1858C26.5486 33.5285 25.4651 32.9956 24.4213 32.4089C22.9657 33.879 21.4673 33.8705 19.8585 32.8741C17.284 35.2371 14.7469 37.5654 12.37 39.7471C12.7245 40.9535 13.0196 41.9584 13.4182 43.3144ZM60.1126 47.4597C63.0284 45.2086 65.9062 42.9865 68.608 40.9005C68.2966 39.6125 68.0308 38.5114 67.7151 37.2061C65.5548 36.037 63.1912 34.7576 60.8129 33.4706C60.0572 34.2911 59.232 34.6521 58.2059 34.5979C57.1025 34.5397 56.4653 33.7776 55.7752 33.0634C55.3856 33.19 55.0442 33.2939 54.7074 33.4115C52.0547 34.3382 50.7255 36.226 50.6234 38.9796C50.5852 40.0075 50.5767 41.0382 50.6023 42.0663C50.6857 45.4127 52.2412 47.3394 55.5409 48.2244C57.3241 46.605 58.0047 46.4778 60.1126 47.4597ZM39.9525 56.8464C40.1942 54.766 39.3968 53.1937 37.8685 52.0582C36.3924 50.9614 34.7845 50.0348 33.2131 49.0677C30.5068 47.4025 27.8041 47.6917 25.0966 49.1571C25.0789 49.2734 25.0374 49.4034 25.0426 49.5314C25.1056 51.0629 24.4743 52.1372 22.9404 52.559C22.4546 52.6925 22.2896 53.0096 22.2058 53.4133C21.8242 55.2476 21.4569 57.085 21.0939 58.875C21.6576 59.3286 22.2084 59.6657 22.6134 60.128C23.0143 60.5854 23.2681 61.1693 23.62 61.7534C28.1849 61.15 32.7363 60.5484 37.3078 59.9441C37.5062 58.2869 38.3287 57.2633 39.9525 56.8464ZM43.2069 59.2165C48.0619 59.3493 52.786 59.4783 57.1002 59.5963C58.0787 58.4645 58.7955 57.635 59.642 56.656C59.4157 55.7857 59.1405 54.7076 58.8529 53.6326C58.7507 53.2505 58.6178 52.8766 58.4988 52.499C57.5573 52.2754 56.6115 52.0188 56.0748 51.4092C55.5371 50.7986 55.4079 49.8352 55.0269 48.8357C53.355 48.1074 51.4272 47.489 49.3648 48.1984C46.6893 49.1186 44.3155 50.5832 42.214 52.4499C40.9227 53.597 40.4428 55.0853 40.6777 56.8216C41.89 57.2081 42.7725 57.9186 43.2069 59.2165ZM43.0756 40.84C43.0709 39.2126 41.8007 37.9815 40.1395 37.9947C38.5489 38.0071 37.3085 39.2248 37.2946 40.7872C37.2803 42.3856 38.5821 43.7095 40.175 43.717C41.8341 43.7249 43.0804 42.4888 43.0756 40.84Z" fill="url(#paint1_linear_44_92)"/>
<path d="M9.33232 27.2736C9.90723 27.2949 10.3587 27.7253 10.3745 28.2672C10.3914 28.8381 9.85178 29.3584 9.25507 29.3464C8.69225 29.3352 8.25218 28.8937 8.24175 28.3298C8.22967 27.6883 8.68301 27.2494 9.33232 27.2736Z" fill="url(#paint2_linear_44_92)"/>
<path d="M54.6215 68.1517C53.9904 68.1735 53.567 67.8181 53.5307 67.2366C53.493 66.6338 53.9786 66.0798 54.5585 66.0638C55.0611 66.05 55.6313 66.5397 55.6796 67.0267C55.737 67.6059 55.2438 68.1301 54.6215 68.1517Z" fill="url(#paint3_linear_44_92)"/>
<path d="M54.4547 11.6549C55.063 11.6839 55.5377 12.2312 55.473 12.8289C55.4156 13.3588 54.8846 13.7603 54.3125 13.7064C53.7551 13.6539 53.3215 13.1521 53.3606 12.6049C53.4004 12.0466 53.8829 11.6274 54.4547 11.6549Z" fill="url(#paint4_linear_44_92)"/>
<defs>
<linearGradient id="paint0_linear_44_92" x1="6.32419" y1="40.1968" x2="74.6869" y2="40.1968" gradientUnits="userSpaceOnUse">
<stop stop-color="#1E1CB0"/>
<stop offset="1" stop-color="#00C9FF"/>
</linearGradient>
<linearGradient id="paint1_linear_44_92" x1="6.31951" y1="40.1921" x2="74.6844" y2="40.1921" gradientUnits="userSpaceOnUse">
<stop stop-color="#1E1CB0"/>
<stop offset="1" stop-color="#00C9FF"/>
</linearGradient>
<linearGradient id="paint2_linear_44_92" x1="6.31985" y1="40.1928" x2="74.6874" y2="40.1928" gradientUnits="userSpaceOnUse">
<stop stop-color="#1E1CB0"/>
<stop offset="1" stop-color="#00C9FF"/>
</linearGradient>
<linearGradient id="paint3_linear_44_92" x1="6.32495" y1="40.1927" x2="74.6832" y2="40.1927" gradientUnits="userSpaceOnUse">
<stop stop-color="#1E1CB0"/>
<stop offset="1" stop-color="#00C9FF"/>
</linearGradient>
<linearGradient id="paint4_linear_44_92" x1="53.3579" y1="12.6825" x2="55.4789" y2="12.6825" gradientUnits="userSpaceOnUse">
<stop stop-color="#1E1CB0"/>
<stop offset="1" stop-color="#00C9FF"/>
</linearGradient>
</defs>
</svg>
