<svg width="204" height="53" viewBox="0 0 204 53" fill="none" xmlns="http://www.w3.org/2000/svg">
<path d="M71.9709 22.7606L61.7838 13.5908V23.9907H59.5075V11.8239C59.5075 10.8995 59.8906 10.4373 60.6569 10.4373H61.1753C61.3856 10.4671 61.6035 10.5416 61.8289 10.6609C62.0543 10.7802 62.3247 10.9591 62.6403 11.1977L73.188 20.703V10.4373H75.4643V22.6264C75.4643 23.536 75.0887 23.9907 74.3374 23.9907H73.9543C73.7439 23.946 73.4659 23.8267 73.1204 23.6329C72.7748 23.4391 72.3916 23.1483 71.9709 22.7606Z" fill="white"/>
<path d="M94.1767 23.9907H91.4947L85.7701 13.1435L80.0229 23.9907H77.386L83.2684 12.7185C83.7342 11.8239 84.1774 11.2275 84.5981 10.9293C85.0188 10.6311 85.3644 10.482 85.6349 10.482H85.9729C86.1082 10.482 86.2584 10.5118 86.4237 10.5715C86.589 10.6311 86.7693 10.7504 86.9646 10.9293C87.1599 11.0933 87.3703 11.3244 87.5956 11.6226C87.821 11.9059 88.0539 12.2712 88.2943 12.7185L94.1767 23.9907Z" fill="white"/>
<path d="M108.551 22.7606L98.3638 13.5908V23.9907H96.0875V11.8239C96.0875 10.8995 96.4706 10.4373 97.2369 10.4373H97.7553C97.9656 10.4671 98.1835 10.5416 98.4089 10.6609C98.6343 10.7802 98.9047 10.9591 99.2203 11.1977L109.768 20.703V10.4373H112.044V22.6264C112.044 23.536 111.669 23.9907 110.917 23.9907H110.534C110.324 23.946 110.046 23.8267 109.7 23.6329C109.355 23.4391 108.972 23.1483 108.551 22.7606Z" fill="white"/>
<path d="M123.071 23.9907H122.282C120.945 23.9907 119.796 23.8714 118.834 23.6329C117.873 23.3794 117.076 22.9843 116.445 22.4475C115.829 21.9107 115.371 21.2174 115.07 20.3675C114.77 19.5176 114.62 18.4888 114.62 17.2811C114.62 14.9402 115.236 13.218 116.468 12.1147C117.715 10.9964 119.661 10.4373 122.305 10.4373H123.049C125.678 10.4373 127.616 10.9964 128.864 12.1147C130.111 13.218 130.734 14.9402 130.734 17.2811C130.734 18.4888 130.584 19.5176 130.283 20.3675C129.983 21.2174 129.517 21.9107 128.886 22.4475C128.27 22.9843 127.474 23.3794 126.497 23.6329C125.535 23.8714 124.394 23.9907 123.071 23.9907ZM123.049 12.6962H122.395C120.487 12.6962 119.097 13.0838 118.226 13.8592C117.354 14.6196 116.918 15.7528 116.918 17.2587C116.918 18.7796 117.347 19.9053 118.203 20.6359C119.075 21.3665 120.464 21.7318 122.373 21.7318H122.981C124.889 21.7318 126.272 21.374 127.128 20.6583C128 19.9277 128.435 18.8019 128.435 17.2811C128.435 15.7901 128 14.6569 127.128 13.8815C126.272 13.1062 124.912 12.7111 123.049 12.6962Z" fill="white"/>
<path d="M132.513 10.4373H148.448V12.6962H141.619V23.9907H139.342V12.6962H132.513V10.4373Z" fill="white"/>
<path d="M166.98 21.7318V23.9907H154.9C154.224 23.9907 153.638 23.9013 153.142 23.7223C152.661 23.5434 152.263 23.3049 151.948 23.0067C151.632 22.6935 151.399 22.3357 151.249 21.9331C151.099 21.5156 151.024 21.0683 151.024 20.5912V19.4505C151.024 18.6156 151.339 17.8701 151.97 17.214C151.339 16.5729 151.024 15.8273 151.024 14.9775V13.8368C151.024 13.3746 151.099 12.9347 151.249 12.5173C151.414 12.0998 151.655 11.7419 151.97 11.4437C152.286 11.1306 152.684 10.8846 153.165 10.7057C153.66 10.5267 154.239 10.4373 154.9 10.4373H166.98V12.6962H154.9C154.404 12.6962 154.014 12.8378 153.728 13.1211C153.443 13.3895 153.3 13.807 153.3 14.3736C153.3 14.9402 153.443 15.3726 153.728 15.6708C154.014 15.9541 154.404 16.0957 154.9 16.0957H166.98V18.3546H154.675C153.758 18.4441 153.3 19.0107 153.3 20.0544C153.3 20.621 153.443 21.0459 153.728 21.3292C154.014 21.5976 154.404 21.7318 154.9 21.7318H166.98Z" fill="white"/>
<path d="M183.214 13.8592V12.6962H177.331C175.423 12.6962 174.033 13.0838 173.162 13.8592C172.29 14.6196 171.854 15.7528 171.854 17.2587C171.854 18.7796 172.283 19.9053 173.139 20.6359C174.011 21.3665 175.4 21.7318 177.309 21.7318H185.49V23.9907H177.219C175.881 23.9907 174.732 23.8714 173.77 23.6329C172.809 23.3794 172.012 22.9843 171.381 22.4475C170.765 21.9107 170.307 21.2174 170.006 20.3675C169.706 19.5176 169.556 18.4888 169.556 17.2811C169.556 14.9402 170.172 13.218 171.404 12.1147C172.651 10.9964 174.597 10.4373 177.241 10.4373H185.49V13.8592H183.214Z" fill="white"/>
<path d="M188.066 10.4373H190.342V16.0957H204V18.3546H190.342V23.9907H188.066V10.4373Z" fill="white"/>
<path d="M66.6903 39.2924V37.0492H67.9802V39.5839C67.9802 40.1754 67.7589 40.6443 67.3161 40.9907C66.8734 41.3371 66.2901 41.5103 65.5664 41.5103H58.9508V40.2303H65.7324C65.9964 40.2303 66.2178 40.15 66.3966 39.9895C66.5839 39.8205 66.6818 39.5881 66.6903 39.2924ZM60.2407 36.0479V38.2912H58.9508V35.7564C58.9508 35.165 59.1722 34.6961 59.6149 34.3497C60.0577 34.0032 60.6409 33.83 61.3646 33.83H67.9802V35.1101H61.1986C60.9346 35.1101 60.709 35.1946 60.5217 35.3636C60.3429 35.5241 60.2492 35.7522 60.2407 36.0479Z" fill="white"/>
<path d="M74.2292 41.5103H73.7822C73.0244 41.5103 72.373 41.4427 71.8281 41.3075C71.2832 41.1639 70.8319 40.94 70.4743 40.6358C70.1253 40.3317 69.8656 39.9388 69.6953 39.4572C69.525 38.9756 69.4399 38.3926 69.4399 37.7082C69.4399 36.3817 69.7889 35.4058 70.4871 34.7806C71.1938 34.1469 72.2964 33.83 73.7949 33.83H74.2164C75.7064 33.83 76.8047 34.1469 77.5114 34.7806C78.2181 35.4058 78.5715 36.3817 78.5715 37.7082C78.5715 38.3926 78.4863 38.9756 78.316 39.4572C78.1457 39.9388 77.8818 40.3317 77.5242 40.6358C77.1751 40.94 76.7238 41.1639 76.1704 41.3075C75.6255 41.4427 74.9784 41.5103 74.2292 41.5103ZM74.2164 35.1101H73.846C72.7647 35.1101 71.9771 35.3298 71.4833 35.7691C70.9895 36.2 70.7425 36.8422 70.7425 37.6955C70.7425 38.5573 70.9852 39.1953 71.4705 39.6093C71.9644 40.0233 72.7519 40.2303 73.8332 40.2303H74.1781C75.2594 40.2303 76.0427 40.0275 76.528 39.6219C77.0218 39.2079 77.2688 38.57 77.2688 37.7082C77.2688 36.8633 77.0218 36.2211 76.528 35.7818C76.0427 35.3424 75.2722 35.1185 74.2164 35.1101Z" fill="white"/>
<path d="M81.3186 40.2303H89.0326V41.5103H80.0287V33.83H81.3186V40.2303Z" fill="white"/>
<path d="M98.2323 37.7209V33.83H99.535V37.7082C99.535 38.3926 99.4499 38.9756 99.2796 39.4572C99.1093 39.9388 98.8453 40.3317 98.4877 40.6358C98.1386 40.94 97.6874 41.1639 97.134 41.3075C96.589 41.4427 95.942 41.5103 95.1927 41.5103H94.8351C94.0773 41.5103 93.426 41.4427 92.8811 41.3075C92.3362 41.1639 91.8849 40.94 91.5273 40.6358C91.1782 40.3317 90.9185 39.9388 90.7482 39.4572C90.5779 38.9756 90.4928 38.3926 90.4928 37.7082V34.0201H91.7955V37.6955C91.7955 38.5235 92.0424 39.153 92.5362 39.5839C93.0301 40.0148 93.8134 40.2303 94.8862 40.2303H95.1416C96.2229 40.2303 97.0062 40.0275 97.4916 39.6219C97.9854 39.2164 98.2323 38.5827 98.2323 37.7209Z" fill="white"/>
<path d="M100.994 33.83H110.024V35.1101H106.154V41.5103H104.864V35.1101H100.994V33.83Z" fill="white"/>
<path d="M120.487 41.5103H111.483V40.2303H115.353V35.1101H111.496V33.83H120.5V35.1101H116.643V40.2303H120.487V41.5103Z" fill="white"/>
<path d="M126.749 41.5103H126.302C125.544 41.5103 124.893 41.4427 124.348 41.3075C123.803 41.1639 123.352 40.94 122.994 40.6358C122.645 40.3317 122.386 39.9388 122.215 39.4572C122.045 38.9756 121.96 38.3926 121.96 37.7082C121.96 36.3817 122.309 35.4058 123.007 34.7806C123.714 34.1469 124.817 33.83 126.315 33.83H126.736C128.227 33.83 129.325 34.1469 130.032 34.7806C130.738 35.4058 131.092 36.3817 131.092 37.7082C131.092 38.3926 131.006 38.9756 130.836 39.4572C130.666 39.9388 130.402 40.3317 130.044 40.6358C129.695 40.94 129.244 41.1639 128.691 41.3075C128.146 41.4427 127.499 41.5103 126.749 41.5103ZM126.736 35.1101H126.366C125.285 35.1101 124.497 35.3298 124.003 35.7691C123.51 36.2 123.263 36.8422 123.263 37.6955C123.263 38.5573 123.505 39.1953 123.991 39.6093C124.484 40.0233 125.272 40.2303 126.353 40.2303H126.698C127.779 40.2303 128.563 40.0275 129.048 39.6219C129.542 39.2079 129.789 38.57 129.789 37.7082C129.789 36.8633 129.542 36.2211 129.048 35.7818C128.563 35.3424 127.792 35.1185 126.736 35.1101Z" fill="white"/>
<path d="M139.611 40.8133L133.839 35.617V41.5103H132.549V34.6158C132.549 34.092 132.766 33.83 133.2 33.83H133.494C133.613 33.8469 133.737 33.8892 133.864 33.9568C133.992 34.0244 134.145 34.1257 134.324 34.2609L140.301 39.6473V33.83H141.591V40.7372C141.591 41.2526 141.378 41.5103 140.952 41.5103H140.735C140.616 41.485 140.459 41.4174 140.263 41.3075C140.067 41.1977 139.85 41.0329 139.611 40.8133Z" fill="white"/>
<path d="M150.79 39.2924V37.0492H152.08V39.5839C152.08 40.1754 151.858 40.6443 151.416 40.9907C150.973 41.3371 150.39 41.5103 149.666 41.5103H143.05V40.2303H149.832C150.096 40.2303 150.317 40.15 150.496 39.9895C150.683 39.8205 150.781 39.5881 150.79 39.2924ZM144.34 36.0479V38.2912H143.05V35.7564C143.05 35.165 143.272 34.6961 143.714 34.3497C144.157 34.0032 144.74 33.83 145.464 33.83H152.08V35.1101H145.298C145.034 35.1101 144.809 35.1946 144.621 35.3636C144.442 35.5241 144.349 35.7522 144.34 36.0479Z" fill="white"/>
<path d="M46.6446 33.181C46.9941 33.187 47.2969 33.4931 47.3059 33.8499C47.3163 34.2574 47.0163 34.5463 46.5921 34.5374C46.2097 34.5295 45.9224 34.2563 45.9159 33.8948C45.9094 33.5244 46.2667 33.1746 46.6446 33.181Z" fill="url(#paint0_linear_88_327)"/>
<path d="M12.7035 21.1664C12.3981 19.5004 12.5776 19.0879 14.0014 18.2288C13.6716 16.6396 13.3345 15.0163 13.0044 13.4263C11.3154 12.8601 10.6927 12.0365 10.898 10.7054C11.0517 9.70892 11.96 8.9327 13.0044 8.9054C14.2576 8.87274 15.0958 9.73453 15.3991 11.4284C18.4324 12.0438 21.4936 12.665 24.4751 13.2699C25.0332 12.876 25.5284 12.5267 26.1145 12.113V9.30693C25.3717 9.11752 24.6376 8.81952 24.3249 8.06355C24.1435 7.62475 24.0455 7.09179 24.1075 6.62692C24.2493 5.56529 25.216 4.83831 26.309 4.84582C27.3471 4.85303 28.2917 5.61176 28.4741 6.5849C28.7057 7.82138 28.1385 8.66308 26.5476 9.33745V12.0343C27.1955 12.5578 27.7525 13.0081 28.4504 13.572C31.3448 13.1565 34.4353 12.7128 37.4838 12.2753C38.1641 10.531 38.9653 9.92348 40.2367 10.1319C41.2607 10.2999 42.0864 11.2781 42.0764 12.3112C42.0648 13.4903 41.2779 14.2731 39.6882 14.6004C39.5269 15.2853 39.3475 16.016 39.1841 16.7502C39.0255 17.4631 38.8835 18.1796 38.725 18.9382C39.7595 19.4547 40.3498 20.2078 39.9785 21.4878C41.4947 22.3216 43.0095 23.1547 44.5464 23.9997C44.7379 23.8002 44.8902 23.6255 45.0589 23.4682C45.8788 22.7039 47.0196 22.6174 47.9007 23.2467C48.7625 23.8623 49.0659 24.9479 48.6433 25.9037C48.2167 26.8684 47.1276 27.4783 46.0878 27.1262C45.415 26.8983 45.0403 27.1432 44.5936 27.4895C42.9435 28.7688 41.2874 30.0407 39.6487 31.3036C40.0742 32.8842 39.9468 33.3106 38.7239 34.2276C38.9629 35.1567 39.2142 36.1343 39.4596 37.0883C41.1955 37.3355 42.0505 38.1031 42.057 39.3712C42.0624 40.4089 41.2407 41.3879 40.2241 41.5551C38.9099 41.7712 38.0408 41.1146 37.4675 39.3749C34.4818 39.2919 31.4486 39.2077 28.3312 39.1211C28.0481 39.9766 27.5907 40.7117 26.5876 40.9063V43.2063C28.2017 44.0001 28.7612 44.8785 28.4398 46.0936C28.1897 47.0392 27.1735 47.7608 26.1624 47.7106C25.1328 47.6594 24.2406 46.8712 24.0776 45.8688C23.8819 44.6654 24.5327 43.8135 26.1356 43.2026V41.1315C25.5206 40.6424 24.9627 40.1985 24.2527 39.6339C21.4508 40.0023 18.4391 40.3985 15.4632 40.7897C14.7128 42.5072 13.869 43.1368 12.6836 42.9063C11.6565 42.7066 10.905 41.8299 10.8796 40.8016C10.8477 39.5111 11.4983 38.8712 13.3804 38.3981C13.6407 37.122 13.9077 35.8133 14.1682 34.537C12.5992 33.638 12.3601 32.9493 13.0855 31.4011C11.5649 30.4924 10.0339 29.5775 8.47666 28.6472C8.23433 28.8998 8.04808 29.1217 7.83363 29.3124C7.0479 30.0107 5.98388 30.0936 5.13152 29.5364C4.25793 28.9653 3.90434 27.8698 4.28288 26.9073C4.65273 25.967 5.62007 25.2678 6.60367 25.5873C7.63422 25.9219 8.11858 25.4078 8.71915 24.8433C10.0274 23.6139 11.3568 22.4068 12.7038 21.1667L12.7035 21.1664ZM16.1857 20.8544C16.6949 21.0958 17.1698 21.3285 17.6507 21.5476C18.7854 22.0648 19.9317 22.082 21.0884 21.615C22.4105 21.0811 23.6275 20.3682 24.7451 19.492C25.8917 18.5931 26.3109 17.4189 26.0727 15.9757C24.8677 15.6827 24.4134 14.8412 24.4067 13.671C21.336 13.0567 18.3051 12.4506 15.4727 11.884C14.7362 12.4906 14.1398 12.9817 13.4614 13.5404C13.7777 15.049 14.1176 16.6709 14.4443 18.2285C15.9606 18.7566 16.2866 19.2549 16.1857 20.8544ZM37.6241 12.6737C34.4972 13.1259 31.438 13.5682 28.3461 14.0151C28.1448 15.0211 27.6507 15.766 26.5905 15.991C26.3806 17.4493 26.7783 18.6621 27.9609 19.5075C28.8903 20.1719 29.8938 20.7401 30.8917 21.3038C32.7504 22.3538 34.5672 22.0527 36.3385 21.0852C36.546 19.6555 36.6694 19.5103 37.9773 18.9685C38.1409 18.9008 38.3344 18.7235 38.3713 18.5644C38.6809 17.2301 38.957 15.8882 39.2484 14.5243C38.4653 14.1522 37.8722 13.6515 37.6241 12.6737ZM8.77338 28.321C9.9296 29.0156 11.2446 29.7949 12.5474 30.5938C13.0573 30.9065 13.5121 31.1774 14.1734 30.8893C14.6341 30.6886 15.1645 30.8447 15.5915 31.1688C15.7991 31.3263 16.002 31.4899 16.2276 31.6669C16.5382 31.5494 16.8432 31.4454 17.1388 31.32C18.5332 30.7287 19.4002 29.7136 19.4676 28.19C19.5202 26.9988 19.4968 25.796 19.3913 24.6086C19.3082 23.6749 18.815 22.88 18.0124 22.3522C17.3587 21.9225 16.6503 21.574 15.9677 21.1904C15.016 22.1516 14.0363 22.1461 12.9844 21.4946C11.301 23.0396 9.64217 24.562 8.08806 25.9885C8.31986 26.7773 8.51276 27.4343 8.77338 28.321ZM39.3044 31.0313C41.2108 29.5594 43.0925 28.1066 44.8591 26.7426C44.6555 25.9005 44.4816 25.1805 44.2752 24.327C42.8627 23.5626 41.3173 22.7261 39.7622 21.8846C39.2681 22.4211 38.7286 22.6571 38.0577 22.6217C37.3362 22.5837 36.9196 22.0854 36.4684 21.6183C36.2137 21.7012 35.9904 21.7691 35.7702 21.8459C34.0357 22.4519 33.1666 23.6862 33.0998 25.4867C33.0749 26.1587 33.0693 26.8327 33.0861 27.5049C33.1406 29.6929 34.1577 30.9527 36.3151 31.5313C37.4811 30.4725 37.9261 30.3893 39.3044 31.0313ZM26.1228 37.1688C26.2808 35.8086 25.7594 34.7805 24.7602 34.038C23.795 33.3209 22.7437 32.7151 21.7162 32.0827C19.9467 30.9939 18.1796 31.183 16.4093 32.1411C16.3977 32.2172 16.3706 32.3022 16.374 32.3859C16.4152 33.3873 16.0024 34.0897 14.9994 34.3655C14.6818 34.4528 14.574 34.6601 14.5191 34.9241C14.2697 36.1234 14.0295 37.3248 13.7921 38.4952C14.1607 38.7918 14.5208 39.0122 14.7856 39.3145C15.0478 39.6135 15.2137 39.9953 15.4438 40.3772C18.4286 39.9827 21.4045 39.5893 24.3936 39.1942C24.5232 38.1107 25.0611 37.4413 26.1228 37.1688ZM28.2506 38.7185C31.425 38.8053 34.5139 38.8896 37.3347 38.9668C37.9745 38.2268 38.4432 37.6844 38.9967 37.0443C38.8487 36.4753 38.6688 35.7704 38.4807 35.0675C38.4139 34.8176 38.327 34.5731 38.2492 34.3262C37.6336 34.1801 37.0152 34.0123 36.6642 33.6137C36.3127 33.2144 36.2282 32.5845 35.9791 31.931C34.8859 31.4548 33.6254 31.0505 32.2769 31.5143C30.5276 32.116 28.9755 33.0736 27.6014 34.2942C26.7571 35.0441 26.4433 36.0173 26.5969 37.1525C27.3896 37.4053 27.9666 37.8699 28.2506 38.7185ZM28.1648 26.7031C28.1617 25.639 27.3312 24.8341 26.245 24.8427C25.205 24.8508 24.394 25.6469 24.3849 26.6686C24.3756 27.7136 25.2267 28.5793 26.2683 28.5842C27.353 28.5894 28.1679 27.7811 28.1648 26.7031Z" fill="url(#paint1_linear_88_327)"/>
<path d="M6.10187 17.8327C6.47777 17.8467 6.77295 18.1281 6.78333 18.4824C6.79433 18.8557 6.44152 19.1959 6.05136 19.188C5.68336 19.1807 5.39563 18.892 5.38881 18.5233C5.38091 18.1039 5.67732 17.8169 6.10187 17.8327Z" fill="url(#paint2_linear_88_327)"/>
<path d="M35.714 44.5607C35.3014 44.575 35.0245 44.3426 35.0008 43.9624C34.9762 43.5682 35.2937 43.206 35.6728 43.1955C36.0015 43.1865 36.3743 43.5067 36.4059 43.8251C36.4434 44.2038 36.1209 44.5466 35.714 44.5607Z" fill="url(#paint3_linear_88_327)"/>
<path d="M35.6049 7.62048C36.0027 7.6395 36.3131 7.99731 36.2708 8.3881C36.2333 8.73457 35.886 8.99714 35.512 8.96186C35.1475 8.92751 34.864 8.59945 34.8896 8.24163C34.9156 7.87661 35.2311 7.60254 35.6049 7.62048Z" fill="url(#paint4_linear_88_327)"/>
<defs>
<linearGradient id="paint0_linear_88_327" x1="4.13502" y1="26.2825" x2="48.8337" y2="26.2825" gradientUnits="userSpaceOnUse">
<stop stop-color="#1E1CB0"/>
<stop offset="1" stop-color="#00C9FF"/>
</linearGradient>
<linearGradient id="paint1_linear_88_327" x1="4.13196" y1="26.2794" x2="48.832" y2="26.2794" gradientUnits="userSpaceOnUse">
<stop stop-color="#1E1CB0"/>
<stop offset="1" stop-color="#00C9FF"/>
</linearGradient>
<linearGradient id="paint2_linear_88_327" x1="4.13218" y1="26.2799" x2="48.834" y2="26.2799" gradientUnits="userSpaceOnUse">
<stop stop-color="#1E1CB0"/>
<stop offset="1" stop-color="#00C9FF"/>
</linearGradient>
<linearGradient id="paint3_linear_88_327" x1="4.13551" y1="26.2798" x2="48.8313" y2="26.2798" gradientUnits="userSpaceOnUse">
<stop stop-color="#1E1CB0"/>
<stop offset="1" stop-color="#00C9FF"/>
</linearGradient>
<linearGradient id="paint4_linear_88_327" x1="34.8879" y1="8.2924" x2="36.2746" y2="8.2924" gradientUnits="userSpaceOnUse">
<stop stop-color="#1E1CB0"/>
<stop offset="1" stop-color="#00C9FF"/>
</linearGradient>
</defs>
</svg>
