<svg width="53" height="53" viewBox="0 0 53 53" fill="none" xmlns="http://www.w3.org/2000/svg">
<path d="M46.6446 33.181C46.9941 33.187 47.2969 33.4931 47.3059 33.8499C47.3163 34.2574 47.0163 34.5463 46.5921 34.5374C46.2097 34.5295 45.9224 34.2563 45.9159 33.8948C45.9094 33.5244 46.2667 33.1746 46.6446 33.181Z" fill="url(#paint0_linear_88_329)"/>
<path d="M12.7035 21.1664C12.3981 19.5004 12.5776 19.0879 14.0014 18.2288C13.6716 16.6396 13.3345 15.0163 13.0044 13.4263C11.3154 12.8601 10.6927 12.0365 10.898 10.7054C11.0517 9.70892 11.96 8.9327 13.0044 8.9054C14.2576 8.87274 15.0958 9.73453 15.3991 11.4284C18.4324 12.0438 21.4936 12.665 24.4751 13.2699C25.0332 12.876 25.5284 12.5267 26.1145 12.113V9.30693C25.3717 9.11752 24.6376 8.81952 24.3249 8.06355C24.1435 7.62475 24.0455 7.09179 24.1075 6.62692C24.2493 5.56529 25.216 4.83831 26.309 4.84582C27.3471 4.85303 28.2917 5.61176 28.4741 6.5849C28.7057 7.82138 28.1385 8.66308 26.5476 9.33745V12.0343C27.1955 12.5578 27.7525 13.0081 28.4504 13.572C31.3448 13.1565 34.4353 12.7128 37.4838 12.2753C38.1641 10.531 38.9653 9.92348 40.2367 10.1319C41.2607 10.2999 42.0864 11.2781 42.0764 12.3112C42.0648 13.4903 41.2779 14.2731 39.6882 14.6004C39.5269 15.2853 39.3475 16.016 39.1841 16.7502C39.0255 17.4631 38.8835 18.1796 38.725 18.9382C39.7595 19.4547 40.3498 20.2078 39.9785 21.4878C41.4947 22.3216 43.0095 23.1547 44.5464 23.9997C44.7379 23.8002 44.8902 23.6255 45.0589 23.4682C45.8788 22.7039 47.0196 22.6174 47.9007 23.2467C48.7625 23.8623 49.0659 24.9479 48.6433 25.9037C48.2167 26.8684 47.1276 27.4783 46.0878 27.1262C45.415 26.8983 45.0403 27.1432 44.5936 27.4895C42.9435 28.7688 41.2874 30.0407 39.6487 31.3036C40.0742 32.8842 39.9468 33.3106 38.7239 34.2276C38.9629 35.1567 39.2142 36.1343 39.4596 37.0883C41.1955 37.3355 42.0505 38.1031 42.057 39.3712C42.0624 40.4089 41.2407 41.3879 40.2241 41.5551C38.9099 41.7712 38.0408 41.1146 37.4675 39.3749C34.4818 39.2919 31.4486 39.2077 28.3312 39.1211C28.0481 39.9766 27.5907 40.7117 26.5876 40.9063V43.2063C28.2017 44.0001 28.7612 44.8785 28.4398 46.0936C28.1897 47.0392 27.1735 47.7608 26.1624 47.7106C25.1328 47.6594 24.2406 46.8712 24.0776 45.8688C23.8819 44.6654 24.5327 43.8135 26.1356 43.2026V41.1315C25.5206 40.6424 24.9627 40.1985 24.2527 39.6339C21.4508 40.0023 18.4391 40.3985 15.4632 40.7897C14.7128 42.5072 13.869 43.1368 12.6836 42.9063C11.6565 42.7066 10.905 41.8299 10.8796 40.8016C10.8477 39.5111 11.4983 38.8712 13.3804 38.3981C13.6407 37.122 13.9077 35.8133 14.1682 34.537C12.5992 33.638 12.3601 32.9493 13.0855 31.4011C11.5649 30.4924 10.0339 29.5775 8.47666 28.6472C8.23433 28.8998 8.04808 29.1217 7.83363 29.3124C7.0479 30.0107 5.98388 30.0936 5.13152 29.5364C4.25793 28.9653 3.90434 27.8698 4.28288 26.9073C4.65273 25.967 5.62007 25.2678 6.60367 25.5873C7.63422 25.9219 8.11858 25.4078 8.71915 24.8433C10.0274 23.6139 11.3568 22.4068 12.7038 21.1667L12.7035 21.1664ZM16.1857 20.8544C16.6949 21.0958 17.1698 21.3285 17.6507 21.5476C18.7854 22.0648 19.9317 22.082 21.0884 21.615C22.4105 21.0811 23.6275 20.3682 24.7451 19.492C25.8917 18.5931 26.3109 17.4189 26.0727 15.9757C24.8677 15.6827 24.4134 14.8412 24.4067 13.671C21.336 13.0567 18.3051 12.4506 15.4727 11.884C14.7362 12.4906 14.1398 12.9817 13.4614 13.5404C13.7777 15.049 14.1176 16.6709 14.4443 18.2285C15.9606 18.7566 16.2866 19.2549 16.1857 20.8544ZM37.6241 12.6737C34.4972 13.1259 31.438 13.5682 28.3461 14.0151C28.1448 15.0211 27.6507 15.766 26.5905 15.991C26.3806 17.4493 26.7783 18.6621 27.9609 19.5075C28.8903 20.1719 29.8938 20.7401 30.8917 21.3038C32.7504 22.3538 34.5672 22.0527 36.3385 21.0852C36.546 19.6555 36.6694 19.5103 37.9773 18.9685C38.1409 18.9008 38.3344 18.7235 38.3713 18.5644C38.6809 17.2301 38.957 15.8882 39.2484 14.5243C38.4653 14.1522 37.8722 13.6515 37.6241 12.6737ZM8.77338 28.321C9.9296 29.0156 11.2446 29.7949 12.5474 30.5938C13.0573 30.9065 13.5121 31.1774 14.1734 30.8893C14.6341 30.6886 15.1645 30.8447 15.5915 31.1688C15.7991 31.3263 16.002 31.4899 16.2276 31.6669C16.5382 31.5494 16.8432 31.4454 17.1388 31.32C18.5332 30.7287 19.4002 29.7136 19.4676 28.19C19.5202 26.9988 19.4968 25.796 19.3913 24.6086C19.3082 23.6749 18.815 22.88 18.0124 22.3522C17.3587 21.9225 16.6503 21.574 15.9677 21.1904C15.016 22.1516 14.0363 22.1461 12.9844 21.4946C11.301 23.0396 9.64217 24.562 8.08806 25.9885C8.31986 26.7773 8.51276 27.4343 8.77338 28.321ZM39.3044 31.0313C41.2108 29.5594 43.0925 28.1066 44.8591 26.7426C44.6555 25.9005 44.4816 25.1805 44.2752 24.327C42.8627 23.5626 41.3173 22.7261 39.7622 21.8846C39.2681 22.4211 38.7286 22.6571 38.0577 22.6217C37.3362 22.5837 36.9196 22.0854 36.4684 21.6183C36.2137 21.7012 35.9904 21.7691 35.7702 21.8459C34.0357 22.4519 33.1666 23.6862 33.0998 25.4867C33.0749 26.1587 33.0693 26.8327 33.0861 27.5049C33.1406 29.6929 34.1577 30.9527 36.3151 31.5313C37.4811 30.4725 37.9261 30.3893 39.3044 31.0313ZM26.1228 37.1688C26.2808 35.8086 25.7594 34.7805 24.7602 34.038C23.795 33.3209 22.7437 32.7151 21.7162 32.0827C19.9467 30.9939 18.1796 31.183 16.4093 32.1411C16.3977 32.2172 16.3706 32.3022 16.374 32.3859C16.4152 33.3873 16.0024 34.0897 14.9994 34.3655C14.6818 34.4528 14.574 34.6601 14.5191 34.9241C14.2697 36.1234 14.0295 37.3248 13.7921 38.4952C14.1607 38.7918 14.5208 39.0122 14.7856 39.3145C15.0478 39.6135 15.2137 39.9953 15.4438 40.3772C18.4286 39.9827 21.4045 39.5893 24.3936 39.1942C24.5232 38.1107 25.0611 37.4413 26.1228 37.1688ZM28.2506 38.7185C31.425 38.8053 34.5139 38.8896 37.3347 38.9668C37.9745 38.2268 38.4432 37.6844 38.9967 37.0443C38.8487 36.4753 38.6688 35.7704 38.4807 35.0675C38.4139 34.8176 38.327 34.5731 38.2492 34.3262C37.6336 34.1801 37.0152 34.0123 36.6642 33.6137C36.3127 33.2144 36.2282 32.5845 35.9791 31.931C34.8859 31.4548 33.6254 31.0505 32.2769 31.5143C30.5276 32.116 28.9755 33.0736 27.6014 34.2942C26.7571 35.0441 26.4433 36.0173 26.5969 37.1525C27.3896 37.4053 27.9666 37.8699 28.2506 38.7185ZM28.1648 26.7031C28.1617 25.639 27.3312 24.8341 26.245 24.8427C25.205 24.8508 24.394 25.6469 24.3849 26.6686C24.3756 27.7136 25.2267 28.5793 26.2683 28.5842C27.353 28.5894 28.1679 27.7811 28.1648 26.7031Z" fill="url(#paint1_linear_88_329)"/>
<path d="M6.10187 17.8327C6.47777 17.8467 6.77295 18.1281 6.78333 18.4824C6.79433 18.8557 6.44152 19.1959 6.05136 19.188C5.68336 19.1807 5.39563 18.892 5.38881 18.5233C5.38091 18.1039 5.67732 17.8169 6.10187 17.8327Z" fill="url(#paint2_linear_88_329)"/>
<path d="M35.714 44.5607C35.3014 44.575 35.0245 44.3426 35.0008 43.9624C34.9762 43.5682 35.2937 43.206 35.6728 43.1955C36.0015 43.1865 36.3743 43.5067 36.4059 43.8251C36.4434 44.2038 36.1209 44.5466 35.714 44.5607Z" fill="url(#paint3_linear_88_329)"/>
<path d="M35.6049 7.62048C36.0027 7.6395 36.3131 7.99731 36.2708 8.3881C36.2333 8.73457 35.886 8.99714 35.512 8.96186C35.1475 8.92751 34.864 8.59945 34.8896 8.24163C34.9156 7.87661 35.2311 7.60254 35.6049 7.62048Z" fill="url(#paint4_linear_88_329)"/>
<defs>
<linearGradient id="paint0_linear_88_329" x1="4.13502" y1="26.2825" x2="48.8337" y2="26.2825" gradientUnits="userSpaceOnUse">
<stop stop-color="#1E1CB0"/>
<stop offset="1" stop-color="#00C9FF"/>
</linearGradient>
<linearGradient id="paint1_linear_88_329" x1="4.13196" y1="26.2794" x2="48.832" y2="26.2794" gradientUnits="userSpaceOnUse">
<stop stop-color="#1E1CB0"/>
<stop offset="1" stop-color="#00C9FF"/>
</linearGradient>
<linearGradient id="paint2_linear_88_329" x1="4.13218" y1="26.2799" x2="48.834" y2="26.2799" gradientUnits="userSpaceOnUse">
<stop stop-color="#1E1CB0"/>
<stop offset="1" stop-color="#00C9FF"/>
</linearGradient>
<linearGradient id="paint3_linear_88_329" x1="4.13551" y1="26.2798" x2="48.8313" y2="26.2798" gradientUnits="userSpaceOnUse">
<stop stop-color="#1E1CB0"/>
<stop offset="1" stop-color="#00C9FF"/>
</linearGradient>
<linearGradient id="paint4_linear_88_329" x1="34.8879" y1="8.2924" x2="36.2746" y2="8.2924" gradientUnits="userSpaceOnUse">
<stop stop-color="#1E1CB0"/>
<stop offset="1" stop-color="#00C9FF"/>
</linearGradient>
</defs>
</svg>
